<svg version="1.2" xmlns="http://www.w3.org/2000/svg" viewBox="0 0 1200 1200" width="80" height="80">
	<title>2oKyL5LM1KHU3AxTDettg1j6kVz-svg</title>
	<style>
		.s0 { fill: #00adb5 } 
	</style>
	<path fill-rule="evenodd" class="s0" d="m534 233h132l10 4 7 8 3 7v12l-2 5h8l10 4 7 6 5 9 1 4v11l-3 8 12 2 8 4 7 7 4 8 1 5v8l-4 11 7 1 8 5 5 5 5 10v14l-5 10-2 3h-2v2l-12 6h-4l4 11v8l-3 10-9 10-8 4-12 2 3 8v11l-4 10-6 7-9 5-4 1h-8l2 5v12l-5 10-7 6-8 3-9 1v13l-5 8-6 5-6 2h-80l-9-4-6-7-2-4v-13l-13-2-8-5-5-6-3-7v-12l2-5h-8l-10-4-7-6-5-9-1-4v-11l3-8-12-2-8-4-7-7-4-8-1-5v-8l4-11-7-1-8-5-5-5-4-7-1-3v-14l5-10 5-5 8-5 7-1-4-11v-9l4-10 7-8 7-4 7-2 7-1-3-8v-11l4-10 6-7 9-5 4-1h8l-2-5v-12l5-10 7-6zm2 14l-5 3-3 4v7l3 5 5 3 74 1 3 3v6l-3 3-100 1-7 4-4 7v7l3 6 5 4 2 1 35 1 3 1 2 6-3 5-64 1-8 4-4 8 1 9 5 6 4 2 107 1 4 2 1 6-3 4-126 1-9 3-4 5-1 2v10l4 6 5 3 5 1 184 1 2 2v7l-5 3-164 1-6 4-3 4-1 9 4 8 8 4 71 1 3 4-1 6-3 2-43 1-6 4-3 4-1 3v7l4 7 7 4 42 1 4 4-1 6-3 2-16 1-5 3-3 4v7l3 5 5 3 38 1 3 3v6l-3 3-13 1-4 4v7l5 4h76l5-4v-7l-4-4-42-1-3-3v-6l1-2 3-1 66-1 5-3 3-5v-7l-5-6-3-1-17-1-3-4 1-6 3-2 42-1 7-4 4-7v-7l-3-6-5-4-2-1-43-1-4-4 1-7 2-1 71-1 8-4 4-8-1-9-5-6-4-2-50-1-4-2-1-6 1-4 71-1 9-3 4-5 1-2v-10l-4-6-5-3-5-1-128-1-1-7 2-4 3-1 107-1 6-4 3-4 1-8-3-7-4-4-5-2-150-1-3-3 1-7 3-2 122-1 6-4 3-4 1-3v-7l-4-7-7-4-57-1-4-4 1-6 3-2 31-1 5-3 3-5v-7l-5-6-3-1z"/>
	<path class="s0" d="m594 442h12l10 4 5 4 5 7 3 10-1 12-5 9-5 5-6 4-6 2h-12l-10-4-5-4-6-10-2-8 1-11 4-8 4-5 10-6z"/>
</svg>